OpenSim_Sub07_CSStiffKnee_GRF.mot
version=1
nRows=34
nColumns=19
inDegrees=no
endheader
time	lFx	lFy	lFz	lCOPx	lCOPy	lCOPz	rFx	rFy	rFz	rCOPx	rCOPy	rCOPz	lMx	lMy	lMz	rMx	rMy	rMz
50.50000000	-28.13081974	629.66279279	45.51219420	0.55022270	0	-0.60506476	21.05967683	161.73170251	3.71418460	0.38360256	0	-0.42182552	0	5.10359672	0	0	1.74038077	-0.00000000
50.51000000	-28.95045162	662.23176207	49.98861880	0.54818531	0	-0.60620431	13.77759931	121.67887864	1.99879487	0.38392353	0	-0.42330686	0	4.81943422	0	0	1.38521044	0
50.52000000	-28.63693589	692.02616045	53.64802897	0.54531120	0	-0.60705399	6.81146680	89.19334078	-0.46217708	0.37124185	0	-0.40873897	0	4.65242220	0	0	1.06823012	0
50.53000000	-27.01076976	716.90162214	56.34791792	0.54137901	0	-0.60761492	1.22844951	64.12188202	-2.54468477	0.32920969	0	-0.35869375	0	4.63191054	0	0	0.76144544	0
50.54000000	-24.40093785	736.17414483	58.08283578	0.53665859	0	-0.60793526	-2.76424687	45.71416851	-3.74004649	0.24531134	0	-0.26143970	0	4.75206270	0	0	0.41761676	0
50.55000000	-21.37044979	750.30848332	58.84693700	0.53172862	0	-0.60814156	-5.69211897	32.72460024	-4.34217067	0.13784896	0	-0.14219809	0	5.08318933	0	0	0.13488523	0
50.56000000	-18.78982713	760.31191120	58.99497945	0.52726188	0	-0.60843087	-7.22776867	23.02575098	-4.33155513	0.04964640	0	-0.04809868	0	5.54509798	0	0	0.00151584	0.00000000
50.57000000	-17.21919878	767.14070355	59.13872776	0.52325295	0	-0.60889807	-6.90346493	14.90575892	-3.55062766	0.00370109	0	-0.00130347	0	5.93143660	0	0	-0.03434040	-0.00000000
50.58000000	-16.41118507	771.67115486	59.71108647	0.51940701	0	-0.60957345	-4.73749100	8.08602388	-2.32360973	-0.01010719	0	0.01163316	0	6.11890689	0	0	-0.02810172	-0.00000000
50.59000000	-15.86591084	774.56814863	60.87195690	0.51557731	0	-0.61044738	-2.11911600	3.45534099	-0.97325706	-0.00912940	0	0.00972807	0	6.01863553	0	0	-0.01361301	0.00000000
50.60000000	-15.23283707	776.00152306	62.32740597	0.51178320	0	-0.61147177	-0.47652856	1.32262475	-0.20989684	-0.00469909	0	0.00477960	0	5.68445123	0	0	-0.00357042	-0.00000000
50.61000000	-14.52291794	775.68451061	63.50108406	0.50797531	0	-0.61256892	0.14284242	0.72757488	-0.07656112	-0.00138308	0	0.00129014	0	5.27027402	0	0	0.00070983	0.00000000
50.62000000	-13.78553268	773.05642571	64.01937189	0.50409829	0	-0.61368162	0.18323166	0.74920852	-0.05109655	0.00012354	0	-0.00021974	0	4.84669905	0	0	0.00151421	0.00000000
50.63000000	-12.98983156	767.92046625	63.83961067	0.50020231	0	-0.61482208	0.04867656	0.90025775	-0.17180453	0.00046440	0	-0.00051750	0	4.44081157	0	0	0.00103429	0.00000000
50.64000000	-11.97664377	760.59417721	63.06954876	0.49622333	0	-0.61601352	-0.08590343	0.98097729	-0.32196418	0.00034205	0	-0.00035951	0	4.14436676	0	0	0.00043502	-0.00000000
50.65000000	-10.81513415	751.53062297	61.99725635	0.49202088	0	-0.61723484	-0.17900962	0.95179659	-0.31066287	0.00015345	0	-0.00015354	0	3.93082145	0	0	0.00007816	0.00000000
50.66000000	-9.45730041	741.08289796	60.83655108	0.48753022	0	-0.61844106	-0.19882072	0.86695621	-0.31188434	0.00003358	0	-0.00002905	0	3.72798831	0	0	-0.00005167	0.00000000
50.67000000	-7.80207158	729.72717741	59.62182454	0.48276718	0	-0.61962626	-0.16708933	0.82616289	-0.32288146	-0.00001338	0	0.00001706	0	3.55654093	0	0	-0.00006230	-0.00000000
50.68000000	-5.83608303	718.14633570	58.39887654	0.47775830	0	-0.62074320	-0.14852254	0.85302009	-0.26111387	-0.00001965	0	0.00002142	0	3.44050331	0	0	-0.00003663	-0.00000000
50.69000000	-3.79368845	707.02717165	57.30756167	0.47243595	0	-0.62171507	-0.15134985	0.95092211	-0.25500960	-0.00001232	0	0.00001278	0	3.31576777	0	0	-0.00001312	0.00000000
50.70000000	-1.75751534	696.97258031	56.38888058	0.46679177	0	-0.62245667	-0.14427918	1.02381036	-0.25919513	-0.00000477	0	0.00000467	0	3.16961133	0	0	-0.00000094	0.00000000
50.71000000	0.33615633	688.46086355	55.45143151	0.46099555	0	-0.62298507	-0.13915841	1.06922919	-0.23051745	-0.00000062	0	0.00000041	0	3.09736577	0	0	0.00000269	0.00000000
50.72000000	2.43361024	681.85702532	54.36076754	0.45516357	0	-0.62335401	-0.12746274	1.13633817	-0.21206912	0.00000072	0	-0.00000087	0	3.12791357	0	0	0.00000242	-0.00000000
50.73000000	4.36281069	677.44851364	53.15462716	0.44933762	0	-0.62357653	-0.09063095	1.19500398	-0.17273934	0.00000071	0	-0.00000079	0	3.25279005	0	0	0.00000131	0.00000000
50.74000000	6.07255294	675.26762233	51.96294764	0.44347958	0	-0.62364641	-0.03780410	1.23944539	-0.16251868	0.00000044	0	-0.00000045	0	3.44697191	0	0	0.00000060	0.00000000
50.75000000	7.75540401	674.93388889	50.88717819	0.43755993	0	-0.62354965	-0.00215921	1.32027101	-0.14593250	0.00000046	0	-0.00000035	0	3.66825113	0	0	0.00000045	0.00000000
50.76000000	9.54516596	675.93747232	50.03037568	0.43146239	0	-0.62325635	0.00955752	1.42631628	-0.11164930	0.00000092	0	-0.00000063	0	3.87001388	0	0	0.00000046	0.00000000
50.77000000	11.41836149	678.10034241	49.42883002	0.42533305	0	-0.62280277	0.00750010	1.50429338	-0.09632949	0.00000156	0	-0.00000106	0	4.07448749	0	0	-0.00000014	0.00000000
50.78000000	13.18174556	681.28792499	49.02446515	0.41923113	0	-0.62227251	-0.01343432	1.55152534	-0.11233018	0.00000138	0	-0.00000093	0	4.29804209	0	0	-0.00000240	-0.00000000
50.79000000	14.84759924	685.07259955	48.72509341	0.41316654	0	-0.62175123	-0.04629822	1.52798392	-0.13440369	-0.00000177	0	0.00000127	0	4.52046596	0	0	-0.00000705	-0.00000000
50.80000000	16.52804479	689.08097692	48.50850769	0.40710839	0	-0.62129434	-0.06438908	1.40421978	-0.18073757	-0.00001073	0	0.00000748	0	4.73959649	0	0	-0.00001260	0.00000000
50.81000000	18.20397307	693.21822711	48.35998387	0.40102748	0	-0.62088172	-0.08081249	1.25699237	-0.22785703	-0.00002614	0	0.00001811	0	4.98467799	0	0	-0.00001182	0.00000000
50.82000000	19.70033031	697.79235084	48.35834578	0.39503775	0	-0.62047165	-0.08562723	1.16017896	-0.21027759	-0.00003929	0	0.00002705	0	5.18547190	0	0	0.00001160	0.00000000
50.83000000	21.06446568	703.13152637	48.47674107	0.38915298	0	-0.62004894	-0.09727892	1.13273313	-0.17341482	-0.00002104	0	0.00001406	0	5.34024980	0	0	0.00008032	-0.00000000
